<?xml version="1.0" encoding="utf-8"?>
<!-- Generator: Adobe Illustrator 15.0.2, SVG Export Plug-In . SVG Version: 6.00 Build 0)  -->
<!DOCTYPE svg PUBLIC "-//W3C//DTD SVG 1.1//EN" "http://www.w3.org/Graphics/SVG/1.1/DTD/svg11.dtd">
<svg version="1.1" id="Layer_1" xmlns="http://www.w3.org/2000/svg" xmlns:xlink="http://www.w3.org/1999/xlink" x="0px" y="0px"
	 width="1024px" height="1024px" viewBox="0 0 1024 1024" enable-background="new 0 0 1024 1024" xml:space="preserve">
<g>
	<path d="M229.8,200.2c19.6,0,36.4-6.4,49.4-19.8c13.4-13.8,20.4-30.8,20.4-51.4c0-19.6-7-36.4-20.4-50.2
		c-13-14.2-29.8-21.4-49.4-21.4c-20.8,0-38.2,7.2-52.6,21.4c-14,13.8-20.8,30.6-20.8,50.2c0,20.6,6.8,37.6,20.8,51.4
		C191.6,193.8,208.8,200.2,229.8,200.2z"/>
	<path d="M823.4,200.2c19.6,0,36.8-6.4,50.6-19.8c13.8-13.8,21-30.8,21-51.4c0-19.6-7-36.4-21-50.2c-14-14.2-31.2-21.4-50.6-21.4
		c-20.4,0-37.801,7.2-50.801,21.4C758.8,92.6,752.2,109.4,752.2,129c0,20.6,6.6,37.6,20.399,51.4C785.8,193.8,803,200.2,823.4,200.2
		z"/>
	<path d="M420.2,472.8c-3.601-13.8-8.8-31.2-14.8-51.2C399.8,401.2,392.8,379,386.2,355.4c-6.4-23.8-13-46.6-19.4-68.8
		c-6-16.8-16.6-32.2-31.6-45.6c-15.4-14-32.6-20.2-50.2-20.2H170.6c-17,0-33.4,6.4-49.2,20.2c-16,13.2-26.2,28.6-30.8,45.6
		c-8,22-14.4,45-21.4,68.8c-7,23.6-13.6,45.8-19.6,66.2c-6,20-11,37.2-14.8,51.2c-3.2,14-6,22.2-7,24.601c-1.4,2.8-1.8,5.6-1.8,9
		C26,518.8,32.4,527.6,46,532.6l7.4,1.801c14.4,0,23.6-6.601,27.8-20.601c0.6-4.6,5.2-18,12.2-39c6-21.399,13-43.6,19.4-67
		c7-23.4,16-53,26.6-90h16.8L59,646.4h93.4V896c0,9.8,3.2,18,10.2,23.8c6.6,6.2,15,9.2,24.8,9.2c9.8,0,17.8-3,23.8-9.2
		c6-6,9.2-14,9.2-23.8V646.4h16.8V896c0,9.8,2.8,18,8.8,23.8c6.4,6.2,14,9.2,24.2,9.2c9.8,0,17.6-3,24.2-9.2
		c7.4-6,10.2-14,10.2-23.8V646.4h92L299.4,317.8h16.8c10.6,37,19.399,66.6,26.8,90c7.4,23.4,14,45.601,20.6,67
		c5.4,21,9.601,34.4,10.601,39c3.6,13.8,13,20.601,27.8,20.601l7-1.801c13.4-4,20.4-12.8,20.4-27.8L427.6,497.4
		C426.2,495,423.8,486.8,420.2,472.8z"/>
	<rect x="504.8" width="70.601" height="1024"/>
	<path d="M967.6,245.8c-17.8-18-39-27.2-65-27.2H743.4c-25.2,0-46.601,9.2-64.801,27.2C660.4,264.4,651.2,286.2,651.2,310.4v224
		c0,8.399,2.8,16,9.399,22.199c6,6,13.4,8.801,22,8.801c9.801,0,17.2-2.801,23.2-8.801c5.2-6,8-13.8,8-22.199V334.2H730v554.6
		c0,10.601,4.6,20.4,13.6,28.2c8.4,8.4,18,12,29.2,12c12.2,0,22-3.6,29.8-12c8.4-7.6,12.2-17.4,12.2-28.2V567.4h18V889
		c0,10.6,4.2,20.4,12,28.2c8,8.399,18.2,12,30.8,12c10.601,0,20-3.601,28.4-12c7.8-7.601,11.4-17.4,11.4-28.2V334.2h16.8v200.2
		c0,8.399,2.8,16,8.399,22.199c6.601,6,14.4,8.801,22.801,8.801c9.8,0,17.199-2.801,22.8-8.801c5-6,8.399-13.8,8.399-22.199v-224
		C994.6,286.2,985.8,264.4,967.6,245.8z"/>
</g>
</svg>
